<svg xmlns="http://www.w3.org/2000/svg" width="1077" height="560" style="overflow: visible;"><rect width="1077" height="560" fill="#0f1115"/><text x="538.5" y="20" text-anchor="middle" font-size="15px" font-weight="700"><tspan fill="#e6e9ef">Films Based on Video Games: </tspan><tspan fill="#06d6a0">Subcategory</tspan><tspan fill="#e6e9ef"> → </tspan><tspan fill="#4cc9f0">Game Publisher (top 10)</tspan><tspan fill="#e6e9ef"> → </tspan><tspan fill="#f72585">Distributor (top 10)</tspan><tspan fill="#e6e9ef"> → </tspan><tspan fill="#ffd166">Decade</tspan></text><defs><linearGradient id="link-gradient-1-4-0" gradientUnits="userSpaceOnUse" x1="15" y1="398.3659519212913" x2="354.6666666666667" y2="387.2619047619046"><stop offset="0%" stop-color="#06d6a0"/><stop offset="100%" stop-color="#4cc9f0"/></linearGradient><linearGradient id="link-gradient-4-16-0" gradientUnits="userSpaceOnUse" x1="368.6666666666667" y1="387.2619047619046" x2="708.3333333333334" y2="503.73015873015913"><stop offset="0%" stop-color="#4cc9f0"/><stop offset="100%" stop-color="#f72585"/></linearGradient><linearGradient id="link-gradient-16-22-0" gradientUnits="userSpaceOnUse" x1="722.3333333333334" y1="503.73015873015913" x2="1062" y2="451.7321116094184"><stop offset="0%" stop-color="#f72585"/><stop offset="100%" stop-color="#ffd166"/></linearGradient><linearGradient id="link-gradient-4-12-0" gradientUnits="userSpaceOnUse" x1="368.6666666666667" y1="387.2619047619046" x2="708.3333333333334" y2="354.72222222222246"><stop offset="0%" stop-color="#4cc9f0"/><stop offset="100%" stop-color="#f72585"/></linearGradient><linearGradient id="link-gradient-12-20-0" gradientUnits="userSpaceOnUse" x1="722.3333333333334" y1="354.72222222222246" x2="1062" y2="198.2936507936509"><stop offset="0%" stop-color="#f72585"/><stop offset="100%" stop-color="#ffd166"/></linearGradient><linearGradient id="link-gradient-1-9-0" gradientUnits="userSpaceOnUse" x1="15" y1="398.3659519212913" x2="354.6666666666667" y2="526.7460317460318"><stop offset="0%" stop-color="#06d6a0"/><stop offset="100%" stop-color="#4cc9f0"/></linearGradient><linearGradient id="link-gradient-9-15-0" gradientUnits="userSpaceOnUse" x1="368.6666666666667" y1="526.7460317460318" x2="708.3333333333334" y2="479.08730158730197"><stop offset="0%" stop-color="#4cc9f0"/><stop offset="100%" stop-color="#f72585"/></linearGradient><linearGradient id="link-gradient-15-20-0" gradientUnits="userSpaceOnUse" x1="722.3333333333334" y1="479.08730158730197" x2="1062" y2="198.2936507936509"><stop offset="0%" stop-color="#f72585"/><stop offset="100%" stop-color="#ffd166"/></linearGradient><linearGradient id="link-gradient-4-15-0" gradientUnits="userSpaceOnUse" x1="368.6666666666667" y1="387.2619047619046" x2="708.3333333333334" y2="479.08730158730197"><stop offset="0%" stop-color="#4cc9f0"/><stop offset="100%" stop-color="#f72585"/></linearGradient><linearGradient id="link-gradient-12-19-0" gradientUnits="userSpaceOnUse" x1="722.3333333333334" y1="354.72222222222246" x2="1062" y2="100.43650793650797"><stop offset="0%" stop-color="#f72585"/><stop offset="100%" stop-color="#ffd166"/></linearGradient><linearGradient id="link-gradient-1-7-0" gradientUnits="userSpaceOnUse" x1="15" y1="398.3659519212913" x2="354.6666666666667" y2="487.2222222222221"><stop offset="0%" stop-color="#06d6a0"/><stop offset="100%" stop-color="#4cc9f0"/></linearGradient><linearGradient id="link-gradient-7-15-0" gradientUnits="userSpaceOnUse" x1="368.6666666666667" y1="487.2222222222221" x2="708.3333333333334" y2="479.08730158730197"><stop offset="0%" stop-color="#4cc9f0"/><stop offset="100%" stop-color="#f72585"/></linearGradient><linearGradient id="link-gradient-15-19-0" gradientUnits="userSpaceOnUse" x1="722.3333333333334" y1="479.08730158730197" x2="1062" y2="100.43650793650797"><stop offset="0%" stop-color="#f72585"/><stop offset="100%" stop-color="#ffd166"/></linearGradient><linearGradient id="link-gradient-7-13-0" gradientUnits="userSpaceOnUse" x1="368.6666666666667" y1="487.2222222222221" x2="708.3333333333334" y2="408.65079365079396"><stop offset="0%" stop-color="#4cc9f0"/><stop offset="100%" stop-color="#f72585"/></linearGradient><linearGradient id="link-gradient-13-19-0" gradientUnits="userSpaceOnUse" x1="722.3333333333334" y1="408.65079365079396" x2="1062" y2="100.43650793650797"><stop offset="0%" stop-color="#f72585"/><stop offset="100%" stop-color="#ffd166"/></linearGradient><linearGradient id="link-gradient-1-8-0" gradientUnits="userSpaceOnUse" x1="15" y1="398.3659519212913" x2="354.6666666666667" y2="508.6111111111111"><stop offset="0%" stop-color="#06d6a0"/><stop offset="100%" stop-color="#4cc9f0"/></linearGradient><linearGradient id="link-gradient-8-13-0" gradientUnits="userSpaceOnUse" x1="368.6666666666667" y1="508.6111111111111" x2="708.3333333333334" y2="408.65079365079396"><stop offset="0%" stop-color="#4cc9f0"/><stop offset="100%" stop-color="#f72585"/></linearGradient><linearGradient id="link-gradient-1-2-0" gradientUnits="userSpaceOnUse" x1="15" y1="398.3659519212913" x2="354.6666666666667" y2="126.46825396825398"><stop offset="0%" stop-color="#06d6a0"/><stop offset="100%" stop-color="#4cc9f0"/></linearGradient><linearGradient id="link-gradient-1-3-0" gradientUnits="userSpaceOnUse" x1="15" y1="398.3659519212913" x2="354.6666666666667" y2="282.89682539682536"><stop offset="0%" stop-color="#06d6a0"/><stop offset="100%" stop-color="#4cc9f0"/></linearGradient><linearGradient id="link-gradient-2-13-0" gradientUnits="userSpaceOnUse" x1="368.6666666666667" y1="126.46825396825398" x2="708.3333333333334" y2="408.65079365079396"><stop offset="0%" stop-color="#4cc9f0"/><stop offset="100%" stop-color="#f72585"/></linearGradient><linearGradient id="link-gradient-3-13-0" gradientUnits="userSpaceOnUse" x1="368.6666666666667" y1="282.89682539682536" x2="708.3333333333334" y2="408.65079365079396"><stop offset="0%" stop-color="#4cc9f0"/><stop offset="100%" stop-color="#f72585"/></linearGradient><linearGradient id="link-gradient-1-5-0" gradientUnits="userSpaceOnUse" x1="15" y1="398.3659519212913" x2="354.6666666666667" y2="433.0555555555554"><stop offset="0%" stop-color="#06d6a0"/><stop offset="100%" stop-color="#4cc9f0"/></linearGradient><linearGradient id="link-gradient-5-14-0" gradientUnits="userSpaceOnUse" x1="368.6666666666667" y1="433.0555555555554" x2="708.3333333333334" y2="449.5634920634924"><stop offset="0%" stop-color="#4cc9f0"/><stop offset="100%" stop-color="#f72585"/></linearGradient><linearGradient id="link-gradient-14-21-0" gradientUnits="userSpaceOnUse" x1="722.3333333333334" y1="449.5634920634924" x2="1062" y2="394.5495719268787"><stop offset="0%" stop-color="#f72585"/><stop offset="100%" stop-color="#ffd166"/></linearGradient><linearGradient id="link-gradient-12-21-0" gradientUnits="userSpaceOnUse" x1="722.3333333333334" y1="354.72222222222246" x2="1062" y2="394.5495719268787"><stop offset="0%" stop-color="#f72585"/><stop offset="100%" stop-color="#ffd166"/></linearGradient><linearGradient id="link-gradient-13-21-0" gradientUnits="userSpaceOnUse" x1="722.3333333333334" y1="408.65079365079396" x2="1062" y2="394.5495719268787"><stop offset="0%" stop-color="#f72585"/><stop offset="100%" stop-color="#ffd166"/></linearGradient><linearGradient id="link-gradient-1-6-0" gradientUnits="userSpaceOnUse" x1="15" y1="398.3659519212913" x2="354.6666666666667" y2="462.57936507936495"><stop offset="0%" stop-color="#06d6a0"/><stop offset="100%" stop-color="#4cc9f0"/></linearGradient><linearGradient id="link-gradient-6-12-0" gradientUnits="userSpaceOnUse" x1="368.6666666666667" y1="462.57936507936495" x2="708.3333333333334" y2="354.72222222222246"><stop offset="0%" stop-color="#4cc9f0"/><stop offset="100%" stop-color="#f72585"/></linearGradient><linearGradient id="link-gradient-4-14-0" gradientUnits="userSpaceOnUse" x1="368.6666666666667" y1="387.2619047619046" x2="708.3333333333334" y2="449.5634920634924"><stop offset="0%" stop-color="#4cc9f0"/><stop offset="100%" stop-color="#f72585"/></linearGradient><linearGradient id="link-gradient-2-12-0" gradientUnits="userSpaceOnUse" x1="368.6666666666667" y1="126.46825396825398" x2="708.3333333333334" y2="354.72222222222246"><stop offset="0%" stop-color="#4cc9f0"/><stop offset="100%" stop-color="#f72585"/></linearGradient><linearGradient id="link-gradient-6-16-0" gradientUnits="userSpaceOnUse" x1="368.6666666666667" y1="462.57936507936495" x2="708.3333333333334" y2="503.73015873015913"><stop offset="0%" stop-color="#4cc9f0"/><stop offset="100%" stop-color="#f72585"/></linearGradient><linearGradient id="link-gradient-16-19-0" gradientUnits="userSpaceOnUse" x1="722.3333333333334" y1="503.73015873015913" x2="1062" y2="100.43650793650797"><stop offset="0%" stop-color="#f72585"/><stop offset="100%" stop-color="#ffd166"/></linearGradient><linearGradient id="link-gradient-2-16-0" gradientUnits="userSpaceOnUse" x1="368.6666666666667" y1="126.46825396825398" x2="708.3333333333334" y2="503.73015873015913"><stop offset="0%" stop-color="#4cc9f0"/><stop offset="100%" stop-color="#f72585"/></linearGradient><linearGradient id="link-gradient-16-21-0" gradientUnits="userSpaceOnUse" x1="722.3333333333334" y1="503.73015873015913" x2="1062" y2="394.5495719268787"><stop offset="0%" stop-color="#f72585"/><stop offset="100%" stop-color="#ffd166"/></linearGradient><linearGradient id="link-gradient-0-4-0" gradientUnits="userSpaceOnUse" x1="15" y1="182.36643353525807" x2="354.6666666666667" y2="387.2619047619046"><stop offset="0%" stop-color="#06d6a0"/><stop offset="100%" stop-color="#4cc9f0"/></linearGradient><linearGradient id="link-gradient-4-17-0" gradientUnits="userSpaceOnUse" x1="368.6666666666667" y1="387.2619047619046" x2="708.3333333333334" y2="523.492063492064"><stop offset="0%" stop-color="#4cc9f0"/><stop offset="100%" stop-color="#f72585"/></linearGradient><linearGradient id="link-gradient-17-22-0" gradientUnits="userSpaceOnUse" x1="722.3333333333334" y1="523.492063492064" x2="1062" y2="451.7321116094184"><stop offset="0%" stop-color="#f72585"/><stop offset="100%" stop-color="#ffd166"/></linearGradient><linearGradient id="link-gradient-15-22-0" gradientUnits="userSpaceOnUse" x1="722.3333333333334" y1="479.08730158730197" x2="1062" y2="451.7321116094184"><stop offset="0%" stop-color="#f72585"/><stop offset="100%" stop-color="#ffd166"/></linearGradient><linearGradient id="link-gradient-0-2-0" gradientUnits="userSpaceOnUse" x1="15" y1="182.36643353525807" x2="354.6666666666667" y2="126.46825396825398"><stop offset="0%" stop-color="#06d6a0"/><stop offset="100%" stop-color="#4cc9f0"/></linearGradient><linearGradient id="link-gradient-0-3-0" gradientUnits="userSpaceOnUse" x1="15" y1="182.36643353525807" x2="354.6666666666667" y2="282.89682539682536"><stop offset="0%" stop-color="#06d6a0"/><stop offset="100%" stop-color="#4cc9f0"/></linearGradient><linearGradient id="link-gradient-2-10-0" gradientUnits="userSpaceOnUse" x1="368.6666666666667" y1="126.46825396825398" x2="708.3333333333334" y2="128.09523809523807"><stop offset="0%" stop-color="#4cc9f0"/><stop offset="100%" stop-color="#f72585"/></linearGradient><linearGradient id="link-gradient-3-10-0" gradientUnits="userSpaceOnUse" x1="368.6666666666667" y1="282.89682539682536" x2="708.3333333333334" y2="128.09523809523807"><stop offset="0%" stop-color="#4cc9f0"/><stop offset="100%" stop-color="#f72585"/></linearGradient><linearGradient id="link-gradient-10-22-0" gradientUnits="userSpaceOnUse" x1="722.3333333333334" y1="128.09523809523807" x2="1062" y2="451.7321116094184"><stop offset="0%" stop-color="#f72585"/><stop offset="100%" stop-color="#ffd166"/></linearGradient><linearGradient id="link-gradient-13-22-0" gradientUnits="userSpaceOnUse" x1="722.3333333333334" y1="408.65079365079396" x2="1062" y2="451.7321116094184"><stop offset="0%" stop-color="#f72585"/><stop offset="100%" stop-color="#ffd166"/></linearGradient><linearGradient id="link-gradient-10-20-0" gradientUnits="userSpaceOnUse" x1="722.3333333333334" y1="128.09523809523807" x2="1062" y2="198.2936507936509"><stop offset="0%" stop-color="#f72585"/><stop offset="100%" stop-color="#ffd166"/></linearGradient><linearGradient id="link-gradient-13-20-0" gradientUnits="userSpaceOnUse" x1="722.3333333333334" y1="408.65079365079396" x2="1062" y2="198.2936507936509"><stop offset="0%" stop-color="#f72585"/><stop offset="100%" stop-color="#ffd166"/></linearGradient><linearGradient id="link-gradient-2-11-0" gradientUnits="userSpaceOnUse" x1="368.6666666666667" y1="126.46825396825398" x2="708.3333333333334" y2="268.2539682539683"><stop offset="0%" stop-color="#4cc9f0"/><stop offset="100%" stop-color="#f72585"/></linearGradient><linearGradient id="link-gradient-3-11-0" gradientUnits="userSpaceOnUse" x1="368.6666666666667" y1="282.89682539682536" x2="708.3333333333334" y2="268.2539682539683"><stop offset="0%" stop-color="#4cc9f0"/><stop offset="100%" stop-color="#f72585"/></linearGradient><linearGradient id="link-gradient-11-20-0" gradientUnits="userSpaceOnUse" x1="722.3333333333334" y1="268.2539682539683" x2="1062" y2="198.2936507936509"><stop offset="0%" stop-color="#f72585"/><stop offset="100%" stop-color="#ffd166"/></linearGradient><linearGradient id="link-gradient-10-19-0" gradientUnits="userSpaceOnUse" x1="722.3333333333334" y1="128.09523809523807" x2="1062" y2="100.43650793650797"><stop offset="0%" stop-color="#f72585"/><stop offset="100%" stop-color="#ffd166"/></linearGradient><linearGradient id="link-gradient-11-19-0" gradientUnits="userSpaceOnUse" x1="722.3333333333334" y1="268.2539682539683" x2="1062" y2="100.43650793650797"><stop offset="0%" stop-color="#f72585"/><stop offset="100%" stop-color="#ffd166"/></linearGradient><linearGradient id="link-gradient-0-7-0" gradientUnits="userSpaceOnUse" x1="15" y1="182.36643353525807" x2="354.6666666666667" y2="487.2222222222221"><stop offset="0%" stop-color="#06d6a0"/><stop offset="100%" stop-color="#4cc9f0"/></linearGradient><linearGradient id="link-gradient-7-18-0" gradientUnits="userSpaceOnUse" x1="368.6666666666667" y1="487.2222222222221" x2="708.3333333333334" y2="538.3730158730164"><stop offset="0%" stop-color="#4cc9f0"/><stop offset="100%" stop-color="#f72585"/></linearGradient><linearGradient id="link-gradient-18-19-0" gradientUnits="userSpaceOnUse" x1="722.3333333333334" y1="538.3730158730164" x2="1062" y2="100.43650793650797"><stop offset="0%" stop-color="#f72585"/><stop offset="100%" stop-color="#ffd166"/></linearGradient><linearGradient id="link-gradient-10-21-0" gradientUnits="userSpaceOnUse" x1="722.3333333333334" y1="128.09523809523807" x2="1062" y2="394.5495719268787"><stop offset="0%" stop-color="#f72585"/><stop offset="100%" stop-color="#ffd166"/></linearGradient><linearGradient id="link-gradient-11-21-0" gradientUnits="userSpaceOnUse" x1="722.3333333333334" y1="268.2539682539683" x2="1062" y2="394.5495719268787"><stop offset="0%" stop-color="#f72585"/><stop offset="100%" stop-color="#ffd166"/></linearGradient><linearGradient id="link-gradient-0-5-0" gradientUnits="userSpaceOnUse" x1="15" y1="182.36643353525807" x2="354.6666666666667" y2="433.0555555555554"><stop offset="0%" stop-color="#06d6a0"/><stop offset="100%" stop-color="#4cc9f0"/></linearGradient><linearGradient id="link-gradient-5-17-0" gradientUnits="userSpaceOnUse" x1="368.6666666666667" y1="433.0555555555554" x2="708.3333333333334" y2="523.492063492064"><stop offset="0%" stop-color="#4cc9f0"/><stop offset="100%" stop-color="#f72585"/></linearGradient><linearGradient id="link-gradient-17-20-0" gradientUnits="userSpaceOnUse" x1="722.3333333333334" y1="523.492063492064" x2="1062" y2="198.2936507936509"><stop offset="0%" stop-color="#f72585"/><stop offset="100%" stop-color="#ffd166"/></linearGradient><linearGradient id="link-gradient-7-10-0" gradientUnits="userSpaceOnUse" x1="368.6666666666667" y1="487.2222222222221" x2="708.3333333333334" y2="128.09523809523807"><stop offset="0%" stop-color="#4cc9f0"/><stop offset="100%" stop-color="#f72585"/></linearGradient></defs><g fill="none"><g stroke-opacity="0.35"><path d="M15,377.215C184.833,377.215,184.833,387.262,354.667,387.262" stroke-width="42.301587301587304" stroke="url(#link-gradient-1-4-0)"/></g><g stroke-opacity="0.35"><path d="M368.667,364.484C538.5,364.484,538.5,505.357,708.333,505.357" stroke-width="3.253968253968254" stroke="url(#link-gradient-4-16-0)"/></g><g stroke-opacity="0.35"><path d="M722.333,508.611C892.167,508.611,892.167,448.478,1062,448.478" stroke-width="3.253968253968254" stroke="url(#link-gradient-16-22-0)"/></g><g stroke-opacity="0.35"><path d="M368.667,382.381C538.5,382.381,538.5,349.841,708.333,349.841" stroke-width="32.53968253968254" stroke="url(#link-gradient-4-12-0)"/></g><g stroke-opacity="0.35"><path d="M722.333,335.198C892.167,335.198,892.167,221.071,1062,221.071" stroke-width="9.761904761904763" stroke="url(#link-gradient-12-20-0)"/></g><g stroke-opacity="0.35"><path d="M15,453.683C184.833,453.683,184.833,526.746,354.667,526.746" stroke-width="6.507936507936508" stroke="url(#link-gradient-1-9-0)"/></g><g stroke-opacity="0.35"><path d="M368.667,526.746C538.5,526.746,538.5,483.968,708.333,483.968" stroke-width="6.507936507936508" stroke="url(#link-gradient-9-15-0)"/></g><g stroke-opacity="0.35"><path d="M722.333,474.206C892.167,474.206,892.167,232.46,1062,232.46" stroke-width="6.507936507936508" stroke="url(#link-gradient-15-20-0)"/></g><g stroke-opacity="0.35"><path d="M368.667,408.413C538.5,408.413,538.5,474.206,708.333,474.206" stroke-width="6.507936507936508" stroke="url(#link-gradient-4-15-0)"/></g><g stroke-opacity="0.35"><path d="M722.333,344.96C892.167,344.96,892.167,136.23,1062,136.23" stroke-width="9.761904761904763" stroke="url(#link-gradient-12-19-0)"/></g><g stroke-opacity="0.35"><path d="M15,401.62C184.833,401.62,184.833,490.476,354.667,490.476" stroke-width="6.507936507936508" stroke="url(#link-gradient-1-7-0)"/></g><g stroke-opacity="0.35"><path d="M368.667,488.849C538.5,488.849,538.5,479.087,708.333,479.087" stroke-width="3.253968253968254" stroke="url(#link-gradient-7-15-0)"/></g><g stroke-opacity="0.35"><path d="M722.333,480.714C892.167,480.714,892.167,144.365,1062,144.365" stroke-width="6.507936507936508" stroke="url(#link-gradient-15-19-0)"/></g><g stroke-opacity="0.35"><path d="M368.667,485.595C538.5,485.595,538.5,416.786,708.333,416.786" stroke-width="3.253968253968254" stroke="url(#link-gradient-7-13-0)"/></g><g stroke-opacity="0.35"><path d="M722.333,397.262C892.167,397.262,892.167,126.468,1062,126.468" stroke-width="9.761904761904763" stroke="url(#link-gradient-13-19-0)"/></g><g stroke-opacity="0.35"><path d="M15,445.548C184.833,445.548,184.833,508.611,354.667,508.611" stroke-width="9.761904761904763" stroke="url(#link-gradient-1-8-0)"/></g><g stroke-opacity="0.35"><path d="M368.667,508.611C538.5,508.611,538.5,423.294,708.333,423.294" stroke-width="9.761904761904763" stroke="url(#link-gradient-8-13-0)"/></g><g stroke-opacity="0.35"><path d="M15,346.302C184.833,346.302,184.833,134.603,354.667,134.603" stroke-width="13.015873015873016" stroke="url(#link-gradient-1-2-0)"/></g><g stroke-opacity="0.35"><path d="M15,354.437C184.833,354.437,184.833,289.405,354.667,289.405" stroke-width="3.253968253968254" stroke="url(#link-gradient-1-3-0)"/></g><g stroke-opacity="0.35"><path d="M368.667,193.175C538.5,193.175,538.5,395.635,708.333,395.635" stroke-width="13.015873015873016" stroke="url(#link-gradient-2-13-0)"/></g><g stroke-opacity="0.35"><path d="M368.667,346.349C538.5,346.349,538.5,408.651,708.333,408.651" stroke-width="13.015873015873016" stroke="url(#link-gradient-3-13-0)"/></g><g stroke-opacity="0.35"><path d="M15,414.636C184.833,414.636,184.833,434.683,354.667,434.683" stroke-width="19.523809523809526" stroke="url(#link-gradient-1-5-0)"/></g><g stroke-opacity="0.35"><path d="M368.667,431.429C538.5,431.429,538.5,451.19,708.333,451.19" stroke-width="19.523809523809526" stroke="url(#link-gradient-5-14-0)"/></g><g stroke-opacity="0.35"><path d="M722.333,449.563C892.167,449.563,892.167,418.954,1062,418.954" stroke-width="22.77777777777778" stroke="url(#link-gradient-14-21-0)"/></g><g stroke-opacity="0.35"><path d="M722.333,364.484C892.167,364.484,892.167,392.923,1062,392.923" stroke-width="29.285714285714285" stroke="url(#link-gradient-12-21-0)"/></g><g stroke-opacity="0.35"><path d="M722.333,405.397C892.167,405.397,892.167,375.026,1062,375.026" stroke-width="6.507936507936508" stroke="url(#link-gradient-13-21-0)"/></g><g stroke-opacity="0.35"><path d="M15,432.533C184.833,432.533,184.833,462.579,354.667,462.579" stroke-width="16.26984126984127" stroke="url(#link-gradient-1-6-0)"/></g><g stroke-opacity="0.35"><path d="M368.667,464.206C538.5,464.206,538.5,372.619,708.333,372.619" stroke-width="13.015873015873016" stroke="url(#link-gradient-6-12-0)"/></g><g stroke-opacity="0.35"><path d="M368.667,400.278C538.5,400.278,538.5,439.802,708.333,439.802" stroke-width="3.253968253968254" stroke="url(#link-gradient-4-14-0)"/></g><g stroke-opacity="0.35"><path d="M368.667,201.31C538.5,201.31,538.5,331.944,708.333,331.944" stroke-width="3.253968253968254" stroke="url(#link-gradient-2-12-0)"/></g><g stroke-opacity="0.35"><path d="M368.667,456.071C538.5,456.071,538.5,508.611,708.333,508.611" stroke-width="3.253968253968254" stroke="url(#link-gradient-6-16-0)"/></g><g stroke-opacity="0.35"><path d="M722.333,498.849C892.167,498.849,892.167,119.96,1062,119.96" stroke-width="3.253968253968254" stroke="url(#link-gradient-16-19-0)"/></g><g stroke-opacity="0.35"><path d="M368.667,183.413C538.5,183.413,538.5,500.476,708.333,500.476" stroke-width="6.507936507936508" stroke="url(#link-gradient-2-16-0)"/></g><g stroke-opacity="0.35"><path d="M722.333,503.73C892.167,503.73,892.167,368.518,1062,368.518" stroke-width="6.507936507936508" stroke="url(#link-gradient-16-21-0)"/></g><g stroke-opacity="0.35"><path d="M15,253.954C184.833,253.954,184.833,364.484,354.667,364.484" stroke-width="3.253968253968254" stroke="url(#link-gradient-0-4-0)"/></g><g stroke-opacity="0.35"><path d="M368.667,403.532C538.5,403.532,538.5,521.865,708.333,521.865" stroke-width="3.253968253968254" stroke="url(#link-gradient-4-17-0)"/></g><g stroke-opacity="0.35"><path d="M722.333,525.119C892.167,525.119,892.167,458.24,1062,458.24" stroke-width="3.253968253968254" stroke="url(#link-gradient-17-22-0)"/></g><g stroke-opacity="0.35"><path d="M722.333,485.595C892.167,485.595,892.167,461.494,1062,461.494" stroke-width="3.253968253968254" stroke="url(#link-gradient-15-22-0)"/></g><g stroke-opacity="0.35"><path d="M15,138.438C184.833,138.438,184.833,89.048,354.667,89.048" stroke-width="78.0952380952381" stroke="url(#link-gradient-0-2-0)"/></g><g stroke-opacity="0.35"><path d="M15,214.906C184.833,214.906,184.833,250.357,354.667,250.357" stroke-width="74.84126984126983" stroke="url(#link-gradient-0-3-0)"/></g><g stroke-opacity="0.35"><path d="M368.667,89.048C538.5,89.048,538.5,89.048,708.333,89.048" stroke-width="78.0952380952381" stroke="url(#link-gradient-2-10-0)"/></g><g stroke-opacity="0.35"><path d="M368.667,250.357C538.5,250.357,538.5,165.516,708.333,165.516" stroke-width="74.84126984126983" stroke="url(#link-gradient-3-10-0)"/></g><g stroke-opacity="0.35"><path d="M722.333,128.095C892.167,128.095,892.167,443.597,1062,443.597" stroke-width="6.507936507936508" stroke="url(#link-gradient-10-22-0)"/></g><g stroke-opacity="0.35"><path d="M722.333,411.905C892.167,411.905,892.167,453.359,1062,453.359" stroke-width="6.507936507936508" stroke="url(#link-gradient-13-22-0)"/></g><g stroke-opacity="0.35"><path d="M722.333,67.897C892.167,67.897,892.167,178.77,1062,178.77" stroke-width="35.79365079365079" stroke="url(#link-gradient-10-20-0)"/></g><g stroke-opacity="0.35"><path d="M722.333,390.754C892.167,390.754,892.167,214.563,1062,214.563" stroke-width="3.253968253968254" stroke="url(#link-gradient-13-20-0)"/></g><g stroke-opacity="0.35"><path d="M368.667,154.127C538.5,154.127,538.5,242.222,708.333,242.222" stroke-width="52.06349206349206" stroke="url(#link-gradient-2-11-0)"/></g><g stroke-opacity="0.35"><path d="M368.667,313.81C538.5,313.81,538.5,294.286,708.333,294.286" stroke-width="52.06349206349206" stroke="url(#link-gradient-3-11-0)"/></g><g stroke-opacity="0.35"><path d="M722.333,224.325C892.167,224.325,892.167,204.802,1062,204.802" stroke-width="16.26984126984127" stroke="url(#link-gradient-11-20-0)"/></g><g stroke-opacity="0.35"><path d="M722.333,103.69C892.167,103.69,892.167,67.897,1062,67.897" stroke-width="35.79365079365079" stroke="url(#link-gradient-10-19-0)"/></g><g stroke-opacity="0.35"><path d="M722.333,248.73C892.167,248.73,892.167,102.063,1062,102.063" stroke-width="32.53968253968254" stroke="url(#link-gradient-11-19-0)"/></g><g stroke-opacity="0.35"><path d="M15,258.835C184.833,258.835,184.833,483.968,354.667,483.968" stroke-width="6.507936507936508" stroke="url(#link-gradient-0-7-0)"/></g><g stroke-opacity="0.35"><path d="M368.667,492.103C538.5,492.103,538.5,538.373,708.333,538.373" stroke-width="3.253968253968254" stroke="url(#link-gradient-7-18-0)"/></g><g stroke-opacity="0.35"><path d="M722.333,538.373C892.167,538.373,892.167,149.246,1062,149.246" stroke-width="3.253968253968254" stroke="url(#link-gradient-18-19-0)"/></g><g stroke-opacity="0.35"><path d="M722.333,123.214C892.167,123.214,892.167,360.383,1062,360.383" stroke-width="3.253968253968254" stroke="url(#link-gradient-10-21-0)"/></g><g stroke-opacity="0.35"><path d="M722.333,266.627C892.167,266.627,892.167,363.637,1062,363.637" stroke-width="3.253968253968254" stroke="url(#link-gradient-11-21-0)"/></g><g stroke-opacity="0.35"><path d="M15,263.716C184.833,263.716,184.833,423.294,354.667,423.294" stroke-width="3.253968253968254" stroke="url(#link-gradient-0-5-0)"/></g><g stroke-opacity="0.35"><path d="M368.667,442.817C538.5,442.817,538.5,525.119,708.333,525.119" stroke-width="3.253968253968254" stroke="url(#link-gradient-5-17-0)"/></g><g stroke-opacity="0.35"><path d="M722.333,521.865C892.167,521.865,892.167,227.579,1062,227.579" stroke-width="3.253968253968254" stroke="url(#link-gradient-17-20-0)"/></g><g stroke-opacity="0.35"><path d="M368.667,482.341C538.5,482.341,538.5,204.563,708.333,204.563" stroke-width="3.253968253968254" stroke="url(#link-gradient-7-10-0)"/></g></g><g><g transform="translate(1,99.39024305906756)"><rect height="165.952380952381" width="14" fill="#06d6a0" stroke="none"/><text x="20" y="82.9761904761905" dy="0.35em" text-anchor="start" style="fill: rgb(230, 233, 239); font-size: 12px; font-weight: 500; pointer-events: none;">Japanese</text></g><g transform="translate(1,339.7945233498628)"><rect height="117.14285714285705" width="14" fill="#06d6a0" stroke="none"/><text x="20" y="58.57142857142853" dy="0.35em" text-anchor="start" style="fill: rgb(230, 233, 239); font-size: 12px; font-weight: 500; pointer-events: none;">English</text></g><g transform="translate(354.6666666666667,50)"><rect height="152.93650793650795" width="14" fill="#4cc9f0" stroke="none"/><text x="20" y="76.46825396825398" dy="0.35em" text-anchor="start" style="fill: rgb(230, 233, 239); font-size: 12px; font-weight: 500; pointer-events: none;">Nintendo</text></g><g transform="translate(354.6666666666667,212.93650793650795)"><rect height="139.92063492063482" width="14" fill="#4cc9f0" stroke="none"/><text x="20" y="69.96031746031741" dy="0.35em" text-anchor="start" style="fill: rgb(230, 233, 239); font-size: 12px; font-weight: 500; pointer-events: none;">The Pokémon Company</text></g><g transform="translate(354.6666666666667,362.8571428571428)"><rect height="48.80952380952368" width="14" fill="#4cc9f0" stroke="none"/><text x="20" y="24.40476190476184" dy="0.35em" text-anchor="start" style="fill: rgb(230, 233, 239); font-size: 12px; font-weight: 500; pointer-events: none;">Capcom</text></g><g transform="translate(354.6666666666667,421.66666666666646)"><rect height="22.77777777777783" width="14" fill="#4cc9f0" stroke="none"/><text x="20" y="11.388888888888914" dy="0.35em" text-anchor="start" style="fill: rgb(230, 233, 239); font-size: 12px; font-weight: 500; pointer-events: none;">Sega</text></g><g transform="translate(354.6666666666667,454.4444444444443)"><rect height="16.269841269841322" width="14" fill="#4cc9f0" stroke="none"/><text x="20" y="8.134920634920661" dy="0.35em" text-anchor="start" style="fill: rgb(230, 233, 239); font-size: 12px; font-weight: 500; pointer-events: none;">Sony Interactive Entertainment</text></g><g transform="translate(354.6666666666667,480.7142857142856)"><rect height="13.015873015873012" width="14" fill="#4cc9f0" stroke="none"/><text x="20" y="6.507936507936506" dy="0.35em" text-anchor="start" style="fill: rgb(230, 233, 239); font-size: 12px; font-weight: 500; pointer-events: none;">Square Enix</text></g><g transform="translate(354.6666666666667,503.7301587301586)"><rect height="9.761904761904987" width="14" fill="#4cc9f0" stroke="none"/><text x="20" y="4.880952380952493" dy="0.35em" text-anchor="start" style="fill: rgb(230, 233, 239); font-size: 12px; font-weight: 500; pointer-events: none;">Warner Bros. Games</text></g><g transform="translate(354.6666666666667,523.4920634920636)"><rect height="6.507936507936506" width="14" fill="#4cc9f0" stroke="none"/><text x="20" y="3.253968253968253" dy="0.35em" text-anchor="start" style="fill: rgb(230, 233, 239); font-size: 12px; font-weight: 500; pointer-events: none;">Ubisoft</text></g><g transform="translate(708.3333333333334,50)"><rect height="156.19047619047618" width="14" fill="#f72585" stroke="none"/><text x="-6" y="78.09523809523809" dy="0.35em" text-anchor="end" style="fill: rgb(230, 233, 239); font-size: 12px; font-weight: 500; pointer-events: none;">Toho</text></g><g transform="translate(708.3333333333334,216.19047619047618)"><rect height="104.1269841269843" width="14" fill="#f72585" stroke="none"/><text x="-6" y="52.06349206349215" dy="0.35em" text-anchor="end" style="fill: rgb(230, 233, 239); font-size: 12px; font-weight: 500; pointer-events: none;">Viz Media</text></g><g transform="translate(708.3333333333334,330.3174603174605)"><rect height="48.80952380952397" width="14" fill="#f72585" stroke="none"/><text x="-6" y="24.404761904761983" dy="0.35em" text-anchor="end" style="fill: rgb(230, 233, 239); font-size: 12px; font-weight: 500; pointer-events: none;">Sony Pictures Releasing</text></g><g transform="translate(708.3333333333334,389.12698412698444)"><rect height="39.04761904761898" width="14" fill="#f72585" stroke="none"/><text x="-6" y="19.52380952380949" dy="0.35em" text-anchor="end" style="fill: rgb(230, 233, 239); font-size: 12px; font-weight: 500; pointer-events: none;">Warner Bros. Pictures</text></g><g transform="translate(708.3333333333334,438.1746031746034)"><rect height="22.777777777777885" width="14" fill="#f72585" stroke="none"/><text x="-6" y="11.388888888888943" dy="0.35em" text-anchor="end" style="fill: rgb(230, 233, 239); font-size: 12px; font-weight: 500; pointer-events: none;">Paramount Pictures</text></g><g transform="translate(708.3333333333334,470.9523809523813)"><rect height="16.269841269841322" width="14" fill="#f72585" stroke="none"/><text x="-6" y="8.134920634920661" dy="0.35em" text-anchor="end" style="fill: rgb(230, 233, 239); font-size: 12px; font-weight: 500; pointer-events: none;">20th Century Fox</text></g><g transform="translate(708.3333333333334,497.2222222222226)"><rect height="13.015873015873012" width="14" fill="#f72585" stroke="none"/><text x="-6" y="6.507936507936506" dy="0.35em" text-anchor="end" style="fill: rgb(230, 233, 239); font-size: 12px; font-weight: 500; pointer-events: none;">Universal Pictures</text></g><g transform="translate(708.3333333333334,520.2380952380956)"><rect height="6.50793650793662" width="14" fill="#f72585" stroke="none"/><text x="-6" y="3.25396825396831" dy="0.35em" text-anchor="end" style="fill: rgb(230, 233, 239); font-size: 12px; font-weight: 500; pointer-events: none;">Toei Company</text></g><g transform="translate(708.3333333333334,536.7460317460323)"><rect height="3.25396825396831" width="14" fill="#f72585" stroke="none"/><text x="-6" y="1.626984126984155" dy="0.35em" text-anchor="end" style="fill: rgb(230, 233, 239); font-size: 12px; font-weight: 500; pointer-events: none;">Aniplex</text></g><g transform="translate(1062,50)"><rect height="100.87301587301593" width="14" fill="#ffd166" stroke="none"/><text x="-6" y="50.436507936507965" dy="0.35em" text-anchor="end" style="fill: rgb(230, 233, 239); font-size: 12px; font-weight: 500; pointer-events: none;">2010</text></g><g transform="translate(1062,160.87301587301593)"><rect height="74.8412698412699" width="14" fill="#ffd166" stroke="none"/><text x="-6" y="37.42063492063495" dy="0.35em" text-anchor="end" style="fill: rgb(230, 233, 239); font-size: 12px; font-weight: 500; pointer-events: none;">2000</text></g><g transform="translate(1062,358.7559211332279)"><rect height="71.58730158730157" width="14" fill="#ffd166" stroke="none"/><text x="-6" y="35.793650793650784" dy="0.35em" text-anchor="end" style="fill: rgb(230, 233, 239); font-size: 12px; font-weight: 500; pointer-events: none;">2020</text></g><g transform="translate(1062,440.34322272052947)"><rect height="22.77777777777783" width="14" fill="#ffd166" stroke="none"/><text x="-6" y="11.388888888888914" dy="0.35em" text-anchor="end" style="fill: rgb(230, 233, 239); font-size: 12px; font-weight: 500; pointer-events: none;">1990</text></g></g></svg>